<svg width="517" height="474" viewBox="0 0 517 474" fill="none" xmlns="http://www.w3.org/2000/svg">
<path d="M447.474 308.29C419.715 308.29 392.527 303.956 366.734 295.429C354.158 291.095 339.9 294.434 331.611 302.866L280.524 341.448C221.929 310.185 184.413 272.692 153.53 214.477L191.069 164.598C200.519 155.125 203.906 141.316 199.856 128.361C191.305 102.45 186.948 75.2369 186.948 47.5263C186.948 27.9391 171.009 12 151.422 12H68.5263C48.9391 12 33 27.9391 33 47.5263C33 276.055 218.945 462 447.474 462C467.061 462 483 446.061 483 426.474V343.816C483 324.229 467.061 308.29 447.474 308.29ZM459.316 426.474C459.316 433.011 453.987 438.316 447.474 438.316C231.994 438.316 56.6839 263.006 56.6839 47.5263C56.6839 40.9895 62.0128 35.6839 68.5263 35.6839H151.422C157.935 35.6839 163.264 40.9895 163.264 47.5263C163.264 77.7715 168.001 107.472 177.285 135.632C178.658 140.06 177.546 144.632 173.211 149.132L130.106 206.21C127.382 209.834 126.956 214.689 129.017 218.716C164.14 287.708 206.796 330.387 276.286 365.984C280.288 368.068 285.19 367.642 288.814 364.895L347.125 320.701C350.299 317.574 354.964 316.485 359.181 317.882C387.507 327.237 417.207 331.974 447.476 331.974C453.989 331.974 459.318 337.279 459.318 343.816V426.474H459.316Z" fill="white"/>
</svg>
