<svg width="210" height="60" viewBox="0 0 210 60" fill="none" xmlns="http://www.w3.org/2000/svg">
<path d="M81.88 38.68H70.76L68.92 44H63.04L73.08 16.04H79.6L89.64 44H83.72L81.88 38.68ZM80.36 34.2L76.32 22.52L72.28 34.2H80.36ZM98.9928 14.4V44H93.3928V14.4H98.9928ZM125.126 32.44C125.126 33.24 125.072 33.96 124.966 34.6H108.766C108.899 36.2 109.459 37.4533 110.446 38.36C111.432 39.2667 112.646 39.72 114.086 39.72C116.166 39.72 117.646 38.8267 118.526 37.04H124.566C123.926 39.1733 122.699 40.9333 120.886 42.32C119.072 43.68 116.846 44.36 114.206 44.36C112.072 44.36 110.152 43.8933 108.446 42.96C106.766 42 105.446 40.6533 104.486 38.92C103.552 37.1867 103.086 35.1867 103.086 32.92C103.086 30.6267 103.552 28.6133 104.486 26.88C105.419 25.1467 106.726 23.8133 108.406 22.88C110.086 21.9467 112.019 21.48 114.206 21.48C116.312 21.48 118.192 21.9333 119.846 22.84C121.526 23.7467 122.819 25.04 123.726 26.72C124.659 28.3733 125.126 30.28 125.126 32.44ZM119.326 30.84C119.299 29.4 118.779 28.2533 117.766 27.4C116.752 26.52 115.512 26.08 114.046 26.08C112.659 26.08 111.486 26.5067 110.526 27.36C109.592 28.1867 109.019 29.3467 108.806 30.84H119.326ZM127.773 32.92C127.773 30.6267 128.24 28.6267 129.173 26.92C130.106 25.1867 131.4 23.8533 133.053 22.92C134.706 21.96 136.6 21.48 138.733 21.48C141.48 21.48 143.746 22.1733 145.533 23.56C147.346 24.92 148.56 26.84 149.173 29.32H143.133C142.813 28.36 142.266 27.6133 141.493 27.08C140.746 26.52 139.813 26.24 138.693 26.24C137.093 26.24 135.826 26.8267 134.893 28C133.96 29.1467 133.493 30.7867 133.493 32.92C133.493 35.0267 133.96 36.6667 134.893 37.84C135.826 38.9867 137.093 39.56 138.693 39.56C140.96 39.56 142.44 38.5467 143.133 36.52H149.173C148.56 38.92 147.346 40.8267 145.533 42.24C143.72 43.6533 141.453 44.36 138.733 44.36C136.6 44.36 134.706 43.8933 133.053 42.96C131.4 42 130.106 40.6667 129.173 38.96C128.24 37.2267 127.773 35.2133 127.773 32.92ZM166.396 44L158.876 34.56V44H153.276V14.4H158.876V31.24L166.316 21.84H173.596L163.836 32.96L173.676 44H166.396ZM186.475 44.36C184.342 44.36 182.422 43.8933 180.715 42.96C179.008 42 177.662 40.6533 176.675 38.92C175.715 37.1867 175.235 35.1867 175.235 32.92C175.235 30.6533 175.728 28.6533 176.715 26.92C177.728 25.1867 179.102 23.8533 180.835 22.92C182.568 21.96 184.502 21.48 186.635 21.48C188.768 21.48 190.702 21.96 192.435 22.92C194.168 23.8533 195.528 25.1867 196.515 26.92C197.528 28.6533 198.035 30.6533 198.035 32.92C198.035 35.1867 197.515 37.1867 196.475 38.92C195.462 40.6533 194.075 42 192.315 42.96C190.582 43.8933 188.635 44.36 186.475 44.36ZM186.475 39.48C187.488 39.48 188.435 39.24 189.315 38.76C190.222 38.2533 190.942 37.5067 191.475 36.52C192.008 35.5333 192.275 34.3333 192.275 32.92C192.275 30.8133 191.715 29.2 190.595 28.08C189.502 26.9333 188.155 26.36 186.555 26.36C184.955 26.36 183.608 26.9333 182.515 28.08C181.448 29.2 180.915 30.8133 180.915 32.92C180.915 35.0267 181.435 36.6533 182.475 37.8C183.542 38.92 184.875 39.48 186.475 39.48ZM204.623 44.28C203.609 44.28 202.769 43.9733 202.103 43.36C201.463 42.72 201.143 41.9333 201.143 41C201.143 40.0667 201.463 39.2933 202.103 38.68C202.769 38.04 203.609 37.72 204.623 37.72C205.609 37.72 206.423 38.04 207.063 38.68C207.703 39.2933 208.023 40.0667 208.023 41C208.023 41.9333 207.703 42.72 207.063 43.36C206.423 43.9733 205.609 44.28 204.623 44.28Z" fill="white"/>
<path fill-rule="evenodd" clip-rule="evenodd" d="M6.65796 13.0125C2.52587 17.472 0 23.441 0 30C0 36.559 2.52587 42.528 6.65796 46.9875C8.75185 46.9078 10.7487 46.4494 12.5821 45.6789C7.96275 42.0153 5 36.3537 5 30C5 23.6463 7.96275 17.9847 12.5821 14.3211C10.7487 13.5506 8.75184 13.0922 6.65796 13.0125ZM15.5 53.1318C18.4289 54.3359 21.6369 55 25 55C38.8071 55 50 43.8071 50 30C50 16.1929 38.8071 5 25 5C21.6369 5 18.4289 5.66407 15.5 6.86824C17.6377 7.7471 19.6267 8.91366 21.4188 10.3197C22.5807 10.1097 23.7776 10 25 10C36.0457 10 45 18.9543 45 30C45 41.0457 36.0457 50 25 50C23.7776 50 22.5807 49.8903 21.4188 49.6803C19.6267 51.0863 17.6377 52.2529 15.5 53.1318Z" fill="white"/>
</svg>
